<?xml version="1.0" encoding="utf-8"?>
<!-- Generator: Adobe Illustrator 19.1.0, SVG Export Plug-In . SVG Version: 6.00 Build 0)  -->
<svg version="1.1" id="Calque_1" xmlns="http://www.w3.org/2000/svg" xmlns:xlink="http://www.w3.org/1999/xlink" x="0px" y="0px"
	 viewBox="-307 557 24 24" style="enable-background:new -307 557 24 24;" xml:space="preserve">
<style type="text/css">
	.st0{fill:#FFFFFF;}
</style>
<g id="call">
	<path class="st0" d="M-306.5,570.2c-0.3-0.9-0.6-1.8-0.5-2.8c0.1-0.6,0.3-1.1,0.7-1.5c0.5-0.5,1-0.9,1.4-1.4c0.6-0.6,1.4-0.6,2,0
		c0.4,0.4,0.7,0.7,1.1,1.1s0.7,0.8,1.1,1.1c0.6,0.6,0.6,1.4,0,2c-0.5,0.5-0.9,0.9-1.4,1.4c-0.1,0.1-0.1,0.2-0.1,0.4
		c0.3,0.7,0.7,1.4,1.2,2c1,1.2,2.1,2.3,3.5,3.1c0.3,0.2,0.6,0.3,0.9,0.5c0.2,0.1,0.3,0.1,0.4-0.1c0.5-0.5,0.9-0.9,1.4-1.4
		c0.6-0.6,1.4-0.6,2,0c0.7,0.7,1.5,1.5,2.2,2.2c0.6,0.6,0.6,1.4,0,2c-0.4,0.4-0.9,0.8-1.3,1.3c-0.5,0.7-1.3,0.9-2.1,0.9
		c-1.2-0.1-2.3-0.5-3.4-1c-2.4-1.2-4.4-2.8-6.1-4.8C-304.8,573.7-305.8,572.1-306.5,570.2z M-296.2,569.6c-2.6-3-2.5-7.5,0.3-10.3
		c2.9-3,7.7-3,10.7,0c2.9,2.9,2.9,7.7,0,10.7c-2.5,2.5-6.3,2.9-9.2,1.2l0,0c-1.1,0.9-2.4,1-3.2,0.9c-0.3-0.1-0.3-0.4-0.1-0.6
		C-296.9,571-296.4,570.2-296.2,569.6L-296.2,569.6z M-296.3,564.6c0,3.2,2.6,5.8,5.8,5.8s5.8-2.6,5.8-5.8s-2.6-5.8-5.8-5.8
		S-296.3,561.4-296.3,564.6z M-292.1,563.7c0.1,0,0.2,0.1,0.3,0.1c0.3,0,0.3,0.1,0.3,0.4c0,0.1,0,0.1,0,0.1
		c-0.1,0.6-0.2,1.2-0.3,1.8c-0.1,0.4-0.1,0.7-0.2,1c-0.1,0.5,0.4,1,0.8,1c0.2,0,0.5,0.1,0.7,0.1c0.5,0,0.9-0.2,1.3-0.6
		c0.1-0.1,0.1-0.2,0.1-0.2c0-0.2-0.1-0.3-0.2-0.2c-0.1,0-0.2,0.1-0.3,0.1c-0.1,0.1-0.2,0.1-0.4,0.1s-0.3-0.1-0.3-0.2s-0.1-0.2,0-0.4
		c0-0.2,0.1-0.5,0.1-0.7c0.1-0.7,0.3-1.4,0.4-2.1c0-0.2,0.1-0.4,0.1-0.6s-0.2-0.3-0.4-0.3c-0.3,0-0.6,0-0.9,0s-0.6,0-0.9,0
		c-0.1,0-0.2,0-0.2,0c-0.1,0-0.2,0.1-0.2,0.2C-292.3,563.6-292.2,563.7-292.1,563.7z M-290.4,562.8c0.5,0,1-0.4,1-1s-0.4-1-1-1
		c-0.5,0-1,0.4-1,1C-291.3,562.4-290.9,562.8-290.4,562.8z"/>
</g>
</svg>
